{"title":"M.O.P. feat. Busta Rhymes - Ante Up (Remix) - (2000) [.vob]","uid":5777556,"size":193075200,"categoryP":"video","categoryS":"music_videos","magnet":"?xt=urn:btih:541a8f421275833eeca71422acb0cbfa0a6d0377&amp;dn=M.O.P.+feat.+Busta+Rhymes+-+Ante+Up+%28Remix%29+-+%282000%29+%5B.vob%5D&amp;tr=udp%3A%2F%2Ftracker.openbittorrent.com%3A80&amp;tr=udp%3A%2F%2Fopen.demonii.com%3A1337&amp;tr=udp%3A%2F%2Ftracker.coppersurfer.tk%3A6969&amp;tr=udp%3A%2F%2Fexodus.desync.com%3A6969","seeders":8,"leechers":0,"uploader":"ccylia","files":1,"time":1282311482,"description":"Video:\nFormat : MPEG Video\nFormat version : Version 2\nFormat profile : Main@Main\nFormat settings, BVOP : Yes\nFormat settings, Matrix : Default\nFormat settings, GOP : M=3, N=13\nDuration : 4mn 24s\nBit rate mode : Variable\nBit rate : 4 195 Kbps\nNominal bit rate : 7 700 Kbps\nWidth : 720 pixels\nHeight : 480 pixels\nDisplay aspect ratio : 4:3\nFrame rate : 29.970 fps\nStandard : NTSC\nColor space : YUV\nChroma subsampling : 4:2:0\nBit depth : 8 bits\nScan type : Interlaced\nScan order : Top Field First\nBits/(Pixel*Frame) : 0.405\nStream size : 132 MiB (72%)\n\nAudio:\nFormat : PCM\nFormat settings, Endianness : Big\nFormat settings, Sign : Signed\nMuxing mode : DVD-Video\nDuration : 4mn 23s\nBit rate mode : Constant\nBit rate : 1 536 Kbps\nChannel(s) : 2 channels\nChannel positions : Front: L R\nSampling rate : 48.0 KHz\nBit depth : 16 bits\nStream size : 48.3 MiB (26%)\n","torrent":{"xt":"urn:btih:541a8f421275833eeca71422acb0cbfa0a6d0377","amp;dn":"M.O.P.+feat.+Busta+Rhymes+-+Ante+Up+%28Remix%29+-+%282000%29+%5B.vob%5D","amp;tr":["udp%3A%2F%2Ftracker.openbittorrent.com%3A80","udp%3A%2F%2Fopen.demonii.com%3A1337","udp%3A%2F%2Ftracker.coppersurfer.tk%3A6969","udp%3A%2F%2Fexodus.desync.com%3A6969"],"infoHash":"541a8f421275833eeca71422acb0cbfa0a6d0377","infoHashBuffer":{"type":"Buffer","data":[84,26,143,66,18,117,131,62,236,167,20,34,172,176,203,250,10,109,3,119]},"announce":[],"urlList":[]}}